<svg style="display: none;">
    <symbol id="i-cart" viewBox="0 0 22 18" xmlns="http://www.w3.org/2000/svg">
        <path
                d="M8.87967 3.05405H22L19.6216 10.1892C19.0758 11.8951 18.2903 13.1622 16.6486 13.1622H7.72973C6.08804 13.1622 5.2021 11.7351 4.75676 10.1892L2.65844 1.27027H0V0.0810776H3.61455L5.94595 10.1892C6.33065 11.1548 6.74448 11.973 7.72973 11.973H16.6486C17.6339 11.973 18.0858 11.1744 18.4324 10.1892L20.6378 4.24324H9.07767L8.87967 3.05405ZM7.13514 14.3514C8.12037 14.3514 8.91892 15.1499 8.91892 16.1351C8.91892 17.1204 8.12037 17.9189 7.13514 17.9189C6.14989 17.9189 5.35135 17.1204 5.35135 16.1351C5.35135 15.1499 6.14989 14.3514 7.13514 14.3514ZM6.54054 16.7297H7.72973V15.5405H6.54054V16.7297ZM16.6486 14.3514C17.6339 14.3514 18.4324 15.1499 18.4324 16.1351C18.4324 17.1204 17.6339 17.9189 16.6486 17.9189C15.6634 17.9189 14.8649 17.1204 14.8649 16.1351C14.8649 15.1499 15.6634 14.3514 16.6486 14.3514ZM16.0541 16.7297H17.2432V15.5405H16.0541V16.7297Z"/>
    </symbol>

    <symbol id="i-comp" viewBox="0 0 16 16" xmlns="http://www.w3.org/2000/svg">
        <path fill-rule="evenodd" clip-rule="evenodd"
              d="M11.0445 -4.57764e-05H4.956V4.95578H0V16H1.13275V6.08853H4.95579V16H6.08875V1.13271H9.91179V7.78764H9.91142V16H11.0445V8.92039H14.8672V16H16V7.78764H11.0445V-4.57764e-05Z"/>
    </symbol>

    <symbol id="i-menu" viewBox="0 0 16 12" xmlns="http://www.w3.org/2000/svg">
        <path fill-rule="evenodd" clip-rule="evenodd" d="M0 0H16V1.2H0V0ZM0 5.4H8V6.6H0V5.4ZM12 10.8H0V12H12V10.8Z"/>
    </symbol>

    <symbol id="i-account" viewBox="0 0 17 18" xmlns="http://www.w3.org/2000/svg">
        <path fill-rule="evenodd" clip-rule="evenodd"
              d="M8.5 1.70354C6.26542 1.70354 4.49447 3.47449 4.49447 5.70907C4.49447 6.89571 4.84478 7.84053 5.61855 8.55903L6.29658 9.18863L5.44612 9.55311C5.30272 9.61457 5.14902 9.67651 4.98793 9.74143C4.30371 10.0172 3.48632 10.3466 2.76011 10.9202C1.9052 11.5955 1.20354 12.5982 1.20354 14.2655C1.20354 15.4066 1.61709 15.8646 1.92285 16.0684C2.0933 16.1821 2.26646 16.2403 2.39835 16.2697C2.46351 16.2841 2.51582 16.2909 2.54854 16.294C2.56479 16.2956 2.57586 16.2962 2.58087 16.2964C2.5813 16.2964 2.58169 16.2964 2.58202 16.2965H14.3579C14.3583 16.2965 14.3622 16.2965 14.3702 16.2962C14.3792 16.2959 14.3938 16.2952 14.4133 16.2935C14.4525 16.2902 14.5102 16.2831 14.5798 16.2684C14.7208 16.2385 14.8993 16.1796 15.0727 16.0659C15.3832 15.8623 15.7965 15.4065 15.7965 14.2655C15.7965 12.9031 15.0374 11.8553 14.0799 11.0587C13.1752 10.3059 12.1623 9.83584 11.6279 9.58781C11.5956 9.57284 11.5651 9.55868 11.5365 9.54531L10.7264 9.16729L11.3815 8.55903C12.1582 7.83777 12.5055 6.95667 12.5055 5.70907C12.5055 3.47449 10.7346 1.70354 8.5 1.70354ZM3.29093 5.70907C3.29093 2.8098 5.60073 0.5 8.5 0.5C11.3993 0.5 13.7091 2.8098 13.7091 5.70907C13.7091 6.91599 13.4289 7.93824 12.7773 8.80432C13.3605 9.09878 14.1319 9.5363 14.8497 10.1335C15.949 11.0482 17 12.4027 17 14.2655C17 15.7572 16.4259 16.6178 15.7327 17.0724C15.0835 17.4981 14.4304 17.5 14.3579 17.5H2.57633V16.8982C2.57633 17.5 2.57593 17.5 2.57552 17.5L2.57281 17.5L2.56853 17.5L2.55772 17.4998C2.54954 17.4996 2.5394 17.4993 2.52743 17.4988C2.50352 17.4977 2.47217 17.4957 2.43443 17.4921C2.35917 17.485 2.25721 17.4712 2.13726 17.4445C1.89892 17.3916 1.57844 17.2853 1.25525 17.0698C0.573732 16.6155 0 15.7572 0 14.2655C0 12.1811 0.910895 10.8472 2.01409 9.97579C2.73454 9.40669 3.55017 9.02992 4.19667 8.76219C3.56212 7.88649 3.29093 6.84501 3.29093 5.70907Z"/>
    </symbol>

    <symbol id="i-check" viewBox="0 0 11 10" fill="none" xmlns="http://www.w3.org/2000/svg">
        <path d="M1.99638 5.04407L5.00614 7.80383L10.0067 2.99998" stroke-width="1.5" stroke-linecap="round"/>
    </symbol>

    <symbol id="i-arrow" viewBox="0 0 11 6" xmlns="http://www.w3.org/2000/svg">
        <path
                d="M10.8535 2.6465L8.3535 0.146496C8.15818 -0.048832 7.84177 -0.048832 7.64649 0.146496C7.45116 0.341824 7.45116 0.658231 7.64649 0.853512L9.29298 2.50001H0.500015C0.22364 2.50001 0 2.72365 0 3.00003C0 3.2764 0.22364 3.50004 0.500015 3.50004H9.29298L7.64649 5.1465C7.45116 5.34183 7.45116 5.65823 7.64649 5.85351C7.74413 5.95115 7.8721 6 8.00002 6C8.12794 6 8.25586 5.95115 8.35355 5.85351L10.8535 3.35351C11.0488 3.15823 11.0488 2.84182 10.8535 2.6465Z"/>
    </symbol>

    <symbol id="i-back" viewBox="0 0 11 6" xmlns="http://www.w3.org/2000/svg">
        <path
                d="M0.146502 2.6465L2.6465 0.146496C2.84182 -0.048832 3.15823 -0.048832 3.35351 0.146496C3.54884 0.341824 3.54884 0.658231 3.35351 0.853512L1.70702 2.50001H10.5C10.7764 2.50001 11 2.72365 11 3.00003C11 3.2764 10.7764 3.50004 10.5 3.50004H1.70702L3.35351 5.1465C3.54884 5.34183 3.54884 5.65823 3.35351 5.85351C3.25587 5.95115 3.1279 6 2.99998 6C2.87206 6 2.74414 5.95115 2.64645 5.85351L0.146454 3.35351C-0.0488272 3.15823 -0.0488262 2.84182 0.146502 2.6465Z"/>
    </symbol>

    <symbol id="i-back-thin" viewBox="0 0 15 11" xmlns="http://www.w3.org/2000/svg">
        <path
                d="M0.161049 5.88885L5.11104 10.8389C5.3259 11.0537 5.67395 11.0537 5.88876 10.8389C6.10362 10.624 6.10362 10.2759 5.88876 10.0611L1.87761 6.04999H14.45C14.754 6.04999 15 5.80398 15 5.49997C15 5.19595 14.754 4.94995 14.45 4.94995H1.87761L5.88876 0.93885C6.10362 0.723989 6.10362 0.375942 5.88876 0.161133C5.78136 0.0537281 5.64059 0 5.49988 0C5.35916 0 5.21845 0.0537281 5.11099 0.161133L0.160996 5.11114C-0.053813 5.32594 -0.053812 5.67399 0.161049 5.88885Z"/>
    </symbol>

    <symbol id="i-search" viewBox="0 0 16 17" xmlns="http://www.w3.org/2000/svg">
        <path fill-rule="evenodd" clip-rule="evenodd"
              d="M12.8818 8.03389C12.8818 11.2188 10.2999 13.8008 7.11497 13.8008C3.93002 13.8008 1.3481 11.2188 1.3481 8.03389C1.3481 4.84893 3.93002 2.26701 7.11497 2.26701C10.2999 2.26701 12.8818 4.84893 12.8818 8.03389ZM11.6469 13.5191C10.4161 14.5371 8.837 15.1489 7.11497 15.1489C3.18548 15.1489 0 11.9634 0 8.03389C0 4.1044 3.18548 0.918915 7.11497 0.918915C11.0445 0.918915 14.2299 4.1044 14.2299 8.03389C14.2299 9.7559 13.6182 11.335 12.6002 12.5658L16 15.9657L15.0468 16.9189L11.6469 13.5191Z"/>
    </symbol>

    <symbol id="i-phone" viewBox="0 0 18 18" fill="none" xmlns="http://www.w3.org/2000/svg">
        <path
                d="M7.61436 5.21792L7.6143 5.21794C7.8089 5.83778 7.65419 6.50439 7.20962 6.96996L6.20831 8.30099C7.09279 9.86718 8.11945 10.8938 9.69915 11.79L11.0726 10.7532C11.2873 10.5483 11.5687 10.4185 11.8459 10.3564C12.1408 10.2903 12.4777 10.2901 12.7966 10.3983C13.5936 10.6614 14.4362 10.7958 15.2964 10.7958C16.2638 10.7958 17.0499 11.582 17.05 12.5493V12.5493V15.2963C17.05 16.2638 16.2638 17.05 15.2964 17.05C7.38521 17.05 0.95 10.6148 0.95 2.70363C0.95 1.7362 1.7362 0.95 2.70363 0.95H5.45831C6.42573 0.95 7.21194 1.7362 7.2119 2.70367L7.61436 5.21792ZM7.61436 5.21792L7.61183 5.21026M7.61436 5.21792L7.61183 5.21026M7.61183 5.21026C7.34686 4.40769 7.2119 3.56467 7.2119 2.7037L7.61183 5.21026Z"
                stroke-width="1.1"/>
    </symbol>

    <symbol id="i-dropdown" viewBox="0 0 6 5" xmlns="http://www.w3.org/2000/svg">
        <path
                d="M2.21913 4.52391L0.299756 2.12469C-0.224055 1.46993 0.242118 0.5 1.08062 0.5H4.91938C5.75788 0.5 6.22405 1.46993 5.70024 2.1247L3.78087 4.52391C3.38054 5.02432 2.61946 5.02432 2.21913 4.52391Z"/>
    </symbol>

    <symbol id="i-reset" viewBox="0 0 8 8" xmlns="http://www.w3.org/2000/svg">
        <path fill-rule="evenodd" clip-rule="evenodd"
              d="M4 3.13844L7.13844 0L8.00002 0.86158L4.86158 4.00002L8.00002 7.13845L7.13844 8.00003L4 4.8616L0.86158 8.00002L0 7.13844L3.13842 4.00002L0 0.861593L0.86158 1.33514e-05L4 3.13844Z"/>
    </symbol>

    <symbol id="i-close" viewBox="0 0 15 15" fill="none" xmlns="http://www.w3.org/2000/svg">
        <path d="M1 1L14 14" stroke="black" stroke-width="1.2"/>
        <path d="M1 14L14 1" stroke="black" stroke-width="1.2"/>
    </symbol>

    <symbol id="i-filter" viewBox="0 0 16 13" fill="none" xmlns="http://www.w3.org/2000/svg">
        <rect y="1.89999" width="16" height="1.2" fill="black"/>
        <rect y="9.69998" width="16" height="1.2" fill="black"/>
        <circle cx="5.5" cy="2.5" r="1.9" fill="white" stroke="black" stroke-width="1.2"/>
        <circle cx="8.5" cy="10.3" r="1.9" fill="white" stroke="black" stroke-width="1.2"/>
    </symbol>

    <symbol id="i-rating" viewBox="0 0 17 16" xmlns="http://www.w3.org/2000/svg">
        <path d="M16.4153 5.76057C16.3133 5.46922 16.0408 5.26841 15.7276 5.25374H10.8046L9.24174 0.507951C9.13045 0.189779 8.81779 -0.0171511 8.47593 0.00111944C8.14128 -0.00124297 7.84382 0.210218 7.74138 0.52331L6.17852 5.2691H1.27112C0.941478 5.26687 0.647379 5.4722 0.541011 5.77882C0.434643 6.08544 0.539877 6.42454 0.802256 6.62065L4.78757 9.58485L3.2247 14.3614C3.1143 14.6749 3.22591 15.0226 3.49944 15.2171C3.77298 15.4116 4.14389 15.4072 4.41248 15.2061L8.58533 12.1344L12.7738 15.2061C12.9043 15.3036 13.0631 15.3575 13.227 15.3597C13.4766 15.3631 13.7121 15.2469 13.8584 15.0481C14.0046 14.8494 14.0431 14.5931 13.9616 14.3614L12.3987 9.58485L16.3059 6.60529C16.5165 6.37302 16.56 6.0373 16.4153 5.76057Z"/>
    </symbol>

    <symbol id="i-plus" viewBox="0 0 8 8" xmlns="http://www.w3.org/2000/svg">
        <path fill-rule="evenodd" clip-rule="evenodd" d="M4.59999 0H3.39999V3.40002H0V4.60002H3.39999V8H4.59999V4.60002H8V3.40002H4.59999V0Z"/>
    </symbol>

    <symbol id="i-minus" viewBox="0 0 8 2" xmlns="http://www.w3.org/2000/svg">
        <path d="M0 0.400024H8V1.60002H0V0.400024Z"/>
    </symbol>

    <symbol id="i-review" viewBox="0 0 16 16" fill="none" xmlns="http://www.w3.org/2000/svg">
        <path d="M12.0225 0L1.90922 10.1133L0 16L5.88669 14.0908L16 3.97747L12.0225 0ZM14.6742 3.97747L13.3483 5.30331L10.6967 2.65166L12.0225 1.32581L14.6742 3.97747ZM2.53009 11.2378L4.76219 13.4699L3.76106 13.7946L2.20537 12.2389L2.53009 11.2378ZM2.98325 10.3652L10.0338 3.31459L11.0282 4.30897L3.97759 11.3595L2.98325 10.3652ZM4.6405 12.0224L11.6911 4.97181L12.6854 5.96619L5.63487 13.0168L4.6405 12.0224ZM1.88072 13.2401L2.75997 14.1193L1.45866 14.5413L1.88072 13.2401Z" fill="black"/>
    </symbol>

    <symbol id="i-facebook" viewBox="0 0 24 24" xmlns="http://www.w3.org/2000/svg">
        <path d="M20 3H4C3.73478 3 3.48043 3.10536 3.29289 3.29289C3.10536 3.48043 3 3.73478 3 4V20C3 20.2652 3.10536 20.5196 3.29289 20.7071C3.48043 20.8946 3.73478 21 4 21H12.615V14.04H10.277V11.315H12.615V9.315C12.615 6.99 14.035 5.723 16.115 5.723C16.814 5.721 17.514 5.757 18.21 5.83V8.25H16.775C15.647 8.25 15.427 8.788 15.427 9.575V11.31H18.124L17.774 14.035H15.426V21H20C20.2652 21 20.5196 20.8946 20.7071 20.7071C20.8946 20.5196 21 20.2652 21 20V4C21 3.73478 20.8946 3.48043 20.7071 3.29289C20.5196 3.10536 20.2652 3 20 3Z" />
    </symbol>

    <symbol id="i-google" viewBox="0 0 24 24" xmlns="http://www.w3.org/2000/svg">
        <path d="M20.6485 10.3687H12.1805V13.8492H17.018C16.8094 14.9742 16.1766 15.9258 15.2227 16.5633C14.4164 17.1023 13.3875 17.4211 12.1782 17.4211C9.83676 17.4211 7.85629 15.8391 7.14848 13.7133C6.97036 13.1742 6.86723 12.5977 6.86723 12.0047C6.86723 11.4117 6.97036 10.8352 7.14848 10.2961C7.85864 8.17266 9.83911 6.59063 12.1805 6.59063C13.5 6.59063 14.6836 7.04531 15.6164 7.93594L18.1946 5.35547C16.636 3.90234 14.6039 3.01172 12.1805 3.01172C8.66723 3.01172 5.62739 5.02734 4.14848 7.96641C3.53911 9.18047 3.19223 10.5539 3.19223 12.007C3.19223 13.4602 3.53911 14.8312 4.14848 16.0453C5.62739 18.9844 8.66723 21 12.1805 21C14.6086 21 16.643 20.1938 18.1289 18.8203C19.8282 17.2547 20.8102 14.9484 20.8102 12.2086C20.8102 11.5711 20.7539 10.9594 20.6485 10.3687Z" />
    </symbol>

    <symbol id="i-fb" viewBox="0 0 8 15" xmlns="http://www.w3.org/2000/svg">
        <path d="M4.6875 15H1.875V7.5H0V4.92188L1.875 4.90723V3.39844C1.875 2.34375 2.07275 1.51367 2.46826 0.908205C2.86377 0.302735 3.68164 0 4.92187 0H7.00195V2.57812H5.69824C5.21973 2.57812 4.93164 2.66846 4.83398 2.84912C4.73633 3.02978 4.6875 3.28613 4.6875 3.61817V4.90722H7.0166L6.73828 7.5H4.6875V15Z"/>
    </symbol>
</svg>
