<svg width="281" height="64" viewBox="0 0 281 64" fill="none" xmlns="http://www.w3.org/2000/svg">
<path d="M93.716 16.198L91.736 19.438L93.716 22.678H92.24L90.26 19.438L92.24 16.198H93.716ZM96.596 16.198L94.616 19.438L96.596 22.678H95.12L93.14 19.438L95.12 16.198H96.596ZM108.299 12.4V25H107.039V13.588H100.559V25H99.2994V12.4H108.299ZM118.544 23.866C117.632 24.766 116.516 25.216 115.196 25.216C113.876 25.216 112.754 24.766 111.83 23.866C110.918 22.954 110.462 21.832 110.462 20.5C110.462 19.168 110.918 18.052 111.83 17.152C112.754 16.24 113.876 15.784 115.196 15.784C116.516 15.784 117.632 16.24 118.544 17.152C119.468 18.052 119.93 19.168 119.93 20.5C119.93 21.832 119.468 22.954 118.544 23.866ZM112.676 23.038C113.36 23.722 114.2 24.064 115.196 24.064C116.192 24.064 117.032 23.722 117.716 23.038C118.4 22.342 118.742 21.496 118.742 20.5C118.742 19.504 118.4 18.664 117.716 17.98C117.032 17.284 116.192 16.936 115.196 16.936C114.2 16.936 113.36 17.284 112.676 17.98C111.992 18.664 111.65 19.504 111.65 20.5C111.65 21.496 111.992 22.342 112.676 23.038ZM129.127 23.848H130.387V27.412H129.199V25H121.855V27.412H120.667V23.848H121.765C122.377 23.044 122.683 21.91 122.683 20.446V16H129.127V23.848ZM123.205 23.848H127.939V17.152H123.871V20.446C123.871 21.826 123.649 22.96 123.205 23.848ZM143.956 25H142.372L137.872 20.662V25H136.684V16H137.872V19.978L142.156 16H143.776L139.132 20.32L143.956 25ZM152.958 16V25H151.77V17.152H147.702V21.166C147.702 22.666 147.414 23.698 146.838 24.262C146.274 24.826 145.494 25.072 144.498 25V23.884C145.182 23.956 145.686 23.794 146.01 23.398C146.346 23.002 146.514 22.258 146.514 21.166V16H152.958ZM163.161 15.784C164.481 15.784 165.597 16.24 166.509 17.152C167.433 18.052 167.895 19.168 167.895 20.5C167.895 21.832 167.433 22.954 166.509 23.866C165.597 24.766 164.481 25.216 163.161 25.216C161.949 25.216 160.905 24.826 160.029 24.046C159.165 23.254 158.667 22.264 158.535 21.076H156.663V25H155.475V16H156.663V19.924H158.535C158.667 18.736 159.165 17.752 160.029 16.972C160.905 16.18 161.949 15.784 163.161 15.784ZM160.641 23.038C161.325 23.722 162.165 24.064 163.161 24.064C164.157 24.064 164.997 23.722 165.681 23.038C166.365 22.342 166.707 21.496 166.707 20.5C166.707 19.504 166.365 18.664 165.681 17.98C164.997 17.284 164.157 16.936 163.161 16.936C162.165 16.936 161.325 17.284 160.641 17.98C159.957 18.664 159.615 19.504 159.615 20.5C159.615 21.496 159.957 22.342 160.641 23.038ZM175.528 16H176.716V25H175.528V21.58C174.832 21.94 173.974 22.12 172.954 22.12C171.778 22.12 170.878 21.85 170.254 21.31C169.642 20.758 169.336 19.948 169.336 18.88V16H170.524V18.88C170.524 19.636 170.722 20.182 171.118 20.518C171.514 20.842 172.114 21.004 172.918 21.004C173.854 21.004 174.724 20.83 175.528 20.482V16ZM180.716 16.198L182.696 19.438L180.716 22.678H179.24L181.22 19.438L179.24 16.198H180.716ZM183.596 16.198L185.576 19.438L183.596 22.678H182.12L184.1 19.438L182.12 16.198H183.596ZM198.324 20.374C199.308 20.734 199.8 21.436 199.8 22.48C199.8 23.212 199.554 23.818 199.062 24.298C198.582 24.766 197.886 25 196.974 25H192.6V16H196.614C197.49 16 198.168 16.228 198.648 16.684C199.128 17.128 199.368 17.704 199.368 18.412C199.368 19.312 199.02 19.966 198.324 20.374ZM196.614 17.152H193.788V19.888H196.614C197.658 19.888 198.18 19.42 198.18 18.484C198.18 18.064 198.042 17.74 197.766 17.512C197.502 17.272 197.118 17.152 196.614 17.152ZM196.974 23.848C197.502 23.848 197.904 23.722 198.18 23.47C198.468 23.218 198.612 22.864 198.612 22.408C198.612 21.988 198.468 21.658 198.18 21.418C197.904 21.166 197.502 21.04 196.974 21.04H193.788V23.848H196.974ZM217.8 12.4V25H216.54V14.308L212.13 21.688H211.95L207.54 14.308V25H206.28V12.4H207.846L212.04 19.42L216.234 12.4H217.8ZM228.038 23.866C227.126 24.766 226.01 25.216 224.69 25.216C223.37 25.216 222.248 24.766 221.324 23.866C220.412 22.954 219.956 21.832 219.956 20.5C219.956 19.168 220.412 18.052 221.324 17.152C222.248 16.24 223.37 15.784 224.69 15.784C226.01 15.784 227.126 16.24 228.038 17.152C228.962 18.052 229.424 19.168 229.424 20.5C229.424 21.832 228.962 22.954 228.038 23.866ZM222.17 23.038C222.854 23.722 223.694 24.064 224.69 24.064C225.686 24.064 226.526 23.722 227.21 23.038C227.894 22.342 228.236 21.496 228.236 20.5C228.236 19.504 227.894 18.664 227.21 17.98C226.526 17.284 225.686 16.936 224.69 16.936C223.694 16.936 222.854 17.284 222.17 17.98C221.486 18.664 221.144 19.504 221.144 20.5C221.144 21.496 221.486 22.342 222.17 23.038ZM235.606 25.216C234.25 25.216 233.122 24.766 232.222 23.866C231.322 22.954 230.872 21.832 230.872 20.5C230.872 19.168 231.322 18.052 232.222 17.152C233.122 16.24 234.25 15.784 235.606 15.784C236.494 15.784 237.292 16 238 16.432C238.708 16.852 239.224 17.422 239.548 18.142L238.576 18.7C238.336 18.16 237.946 17.734 237.406 17.422C236.878 17.098 236.278 16.936 235.606 16.936C234.61 16.936 233.77 17.284 233.086 17.98C232.402 18.664 232.06 19.504 232.06 20.5C232.06 21.496 232.402 22.342 233.086 23.038C233.77 23.722 234.61 24.064 235.606 24.064C236.278 24.064 236.878 23.908 237.406 23.596C237.934 23.272 238.348 22.84 238.648 22.3L239.638 22.876C239.266 23.596 238.72 24.166 238 24.586C237.28 25.006 236.482 25.216 235.606 25.216ZM248.616 25H247.032L242.532 20.662V25H241.344V16H242.532V19.978L246.816 16H248.436L243.792 20.32L248.616 25ZM255.963 20.374C256.947 20.734 257.439 21.436 257.439 22.48C257.439 23.212 257.193 23.818 256.701 24.298C256.221 24.766 255.525 25 254.613 25H250.239V16H254.253C255.129 16 255.807 16.228 256.287 16.684C256.767 17.128 257.007 17.704 257.007 18.412C257.007 19.312 256.659 19.966 255.963 20.374ZM254.253 17.152H251.427V19.888H254.253C255.297 19.888 255.819 19.42 255.819 18.484C255.819 18.064 255.681 17.74 255.405 17.512C255.141 17.272 254.757 17.152 254.253 17.152ZM254.613 23.848C255.141 23.848 255.543 23.722 255.819 23.47C256.107 23.218 256.251 22.864 256.251 22.408C256.251 21.988 256.107 21.658 255.819 21.418C255.543 21.166 255.141 21.04 254.613 21.04H251.427V23.848H254.613ZM263.397 15.784C264.729 15.784 265.803 16.258 266.619 17.206C267.447 18.142 267.861 19.252 267.861 20.536C267.861 20.668 267.849 20.854 267.825 21.094H259.923C260.043 22.006 260.427 22.732 261.075 23.272C261.735 23.8 262.545 24.064 263.505 24.064C264.189 24.064 264.777 23.926 265.269 23.65C265.773 23.362 266.151 22.99 266.403 22.534L267.447 23.146C267.051 23.782 266.511 24.286 265.827 24.658C265.143 25.03 264.363 25.216 263.487 25.216C262.071 25.216 260.919 24.772 260.031 23.884C259.143 22.996 258.699 21.868 258.699 20.5C258.699 19.156 259.137 18.034 260.013 17.134C260.889 16.234 262.017 15.784 263.397 15.784ZM263.397 16.936C262.461 16.936 261.675 17.218 261.039 17.782C260.415 18.334 260.043 19.054 259.923 19.942H266.637C266.517 18.994 266.151 18.256 265.539 17.728C264.927 17.2 264.213 16.936 263.397 16.936ZM96.812 43H97.82V52H96.632V45.07L91.268 52H90.26V43H91.448V49.93L96.812 43ZM116.532 39.4V52H115.272V41.308L110.862 48.688H110.682L106.272 41.308V52H105.012V39.4H106.578L110.772 46.42L114.966 39.4H116.532ZM126.771 50.866C125.859 51.766 124.743 52.216 123.423 52.216C122.103 52.216 120.981 51.766 120.057 50.866C119.145 49.954 118.689 48.832 118.689 47.5C118.689 46.168 119.145 45.052 120.057 44.152C120.981 43.24 122.103 42.784 123.423 42.784C124.743 42.784 125.859 43.24 126.771 44.152C127.695 45.052 128.157 46.168 128.157 47.5C128.157 48.832 127.695 49.954 126.771 50.866ZM120.903 50.038C121.587 50.722 122.427 51.064 123.423 51.064C124.419 51.064 125.259 50.722 125.943 50.038C126.627 49.342 126.969 48.496 126.969 47.5C126.969 46.504 126.627 45.664 125.943 44.98C125.259 44.284 124.419 43.936 123.423 43.936C122.427 43.936 121.587 44.284 120.903 44.98C120.219 45.664 119.877 46.504 119.877 47.5C119.877 48.496 120.219 49.342 120.903 50.038ZM134.339 52.216C132.983 52.216 131.855 51.766 130.955 50.866C130.055 49.954 129.605 48.832 129.605 47.5C129.605 46.168 130.055 45.052 130.955 44.152C131.855 43.24 132.983 42.784 134.339 42.784C135.227 42.784 136.025 43 136.733 43.432C137.441 43.852 137.957 44.422 138.281 45.142L137.309 45.7C137.069 45.16 136.679 44.734 136.139 44.422C135.611 44.098 135.011 43.936 134.339 43.936C133.343 43.936 132.503 44.284 131.819 44.98C131.135 45.664 130.793 46.504 130.793 47.5C130.793 48.496 131.135 49.342 131.819 50.038C132.503 50.722 133.343 51.064 134.339 51.064C135.011 51.064 135.611 50.908 136.139 50.596C136.667 50.272 137.081 49.84 137.381 49.3L138.371 49.876C137.999 50.596 137.453 51.166 136.733 51.586C136.013 52.006 135.215 52.216 134.339 52.216ZM147.348 52H145.764L141.264 47.662V52H140.076V43H141.264V46.978L145.548 43H147.168L142.524 47.32L147.348 52ZM155.616 50.866C154.704 51.766 153.588 52.216 152.268 52.216C150.948 52.216 149.826 51.766 148.902 50.866C147.99 49.954 147.534 48.832 147.534 47.5C147.534 46.168 147.99 45.052 148.902 44.152C149.826 43.24 150.948 42.784 152.268 42.784C153.588 42.784 154.704 43.24 155.616 44.152C156.54 45.052 157.002 46.168 157.002 47.5C157.002 48.832 156.54 49.954 155.616 50.866ZM149.748 50.038C150.432 50.722 151.272 51.064 152.268 51.064C153.264 51.064 154.104 50.722 154.788 50.038C155.472 49.342 155.814 48.496 155.814 47.5C155.814 46.504 155.472 45.664 154.788 44.98C154.104 44.284 153.264 43.936 152.268 43.936C151.272 43.936 150.432 44.284 149.748 44.98C149.064 45.664 148.722 46.504 148.722 47.5C148.722 48.496 149.064 49.342 149.748 50.038ZM164.714 47.374C165.698 47.734 166.19 48.436 166.19 49.48C166.19 50.212 165.944 50.818 165.452 51.298C164.972 51.766 164.276 52 163.364 52H158.99V43H163.004C163.88 43 164.558 43.228 165.038 43.684C165.518 44.128 165.758 44.704 165.758 45.412C165.758 46.312 165.41 46.966 164.714 47.374ZM163.004 44.152H160.178V46.888H163.004C164.048 46.888 164.57 46.42 164.57 45.484C164.57 45.064 164.432 44.74 164.156 44.512C163.892 44.272 163.508 44.152 163.004 44.152ZM163.364 50.848C163.892 50.848 164.294 50.722 164.57 50.47C164.858 50.218 165.002 49.864 165.002 49.408C165.002 48.988 164.858 48.658 164.57 48.418C164.294 48.166 163.892 48.04 163.364 48.04H160.178V50.848H163.364ZM172.184 52.216C170.828 52.216 169.7 51.766 168.8 50.866C167.9 49.954 167.45 48.832 167.45 47.5C167.45 46.168 167.9 45.052 168.8 44.152C169.7 43.24 170.828 42.784 172.184 42.784C173.072 42.784 173.87 43 174.578 43.432C175.286 43.852 175.802 44.422 176.126 45.142L175.154 45.7C174.914 45.16 174.524 44.734 173.984 44.422C173.456 44.098 172.856 43.936 172.184 43.936C171.188 43.936 170.348 44.284 169.664 44.98C168.98 45.664 168.638 46.504 168.638 47.5C168.638 48.496 168.98 49.342 169.664 50.038C170.348 50.722 171.188 51.064 172.184 51.064C172.856 51.064 173.456 50.908 173.984 50.596C174.512 50.272 174.926 49.84 175.226 49.3L176.216 49.876C175.844 50.596 175.298 51.166 174.578 51.586C173.858 52.006 173.06 52.216 172.184 52.216ZM185.194 52H183.61L179.11 47.662V52H177.922V43H179.11V46.978L183.394 43H185.014L180.37 47.32L185.194 52ZM193.462 50.866C192.55 51.766 191.434 52.216 190.114 52.216C188.794 52.216 187.672 51.766 186.748 50.866C185.836 49.954 185.38 48.832 185.38 47.5C185.38 46.168 185.836 45.052 186.748 44.152C187.672 43.24 188.794 42.784 190.114 42.784C191.434 42.784 192.55 43.24 193.462 44.152C194.386 45.052 194.848 46.168 194.848 47.5C194.848 48.832 194.386 49.954 193.462 50.866ZM187.594 50.038C188.278 50.722 189.118 51.064 190.114 51.064C191.11 51.064 191.95 50.722 192.634 50.038C193.318 49.342 193.66 48.496 193.66 47.5C193.66 46.504 193.318 45.664 192.634 44.98C191.95 44.284 191.11 43.936 190.114 43.936C189.118 43.936 188.278 44.284 187.594 44.98C186.91 45.664 186.568 46.504 186.568 47.5C186.568 48.496 186.91 49.342 187.594 50.038ZM198.276 41.56V40.516H202.956V41.56H198.276ZM203.388 43H204.396V52H203.208V45.07L197.844 52H196.836V43H198.024V49.93L203.388 43ZM218.95 50.866C218.038 51.766 216.922 52.216 215.602 52.216C214.282 52.216 213.16 51.766 212.236 50.866C211.324 49.954 210.868 48.832 210.868 47.5C210.868 46.168 211.324 45.052 212.236 44.152C213.16 43.24 214.282 42.784 215.602 42.784C216.922 42.784 218.038 43.24 218.95 44.152C219.874 45.052 220.336 46.168 220.336 47.5C220.336 48.832 219.874 49.954 218.95 50.866ZM213.082 50.038C213.766 50.722 214.606 51.064 215.602 51.064C216.598 51.064 217.438 50.722 218.122 50.038C218.806 49.342 219.148 48.496 219.148 47.5C219.148 46.504 218.806 45.664 218.122 44.98C217.438 44.284 216.598 43.936 215.602 43.936C214.606 43.936 213.766 44.284 213.082 44.98C212.398 45.664 212.056 46.504 212.056 47.5C212.056 48.496 212.398 49.342 213.082 50.038ZM226.32 52.216C225.024 52.216 223.944 51.79 223.08 50.938C222.216 50.074 221.784 48.958 221.784 47.59C221.784 46.054 222.012 44.878 222.468 44.062C222.924 43.234 223.848 42.484 225.24 41.812C225.504 41.68 225.852 41.524 226.284 41.344C226.728 41.164 227.058 41.02 227.274 40.912C227.502 40.804 227.748 40.666 228.012 40.498C228.276 40.318 228.474 40.12 228.606 39.904C228.738 39.688 228.822 39.43 228.858 39.13L229.794 39.67C229.746 39.958 229.65 40.228 229.506 40.48C229.362 40.732 229.212 40.936 229.056 41.092C228.912 41.248 228.678 41.422 228.354 41.614C228.042 41.794 227.796 41.926 227.616 42.01C227.448 42.082 227.148 42.208 226.716 42.388C226.296 42.568 226.014 42.688 225.87 42.748C225.03 43.108 224.412 43.486 224.016 43.882C223.62 44.266 223.338 44.77 223.17 45.394C223.578 44.854 224.094 44.458 224.718 44.206C225.354 43.942 225.972 43.81 226.572 43.81C227.772 43.81 228.762 44.206 229.542 44.998C230.334 45.778 230.73 46.78 230.73 48.004C230.73 49.216 230.31 50.224 229.47 51.028C228.642 51.82 227.592 52.216 226.32 52.216ZM226.32 51.028C227.256 51.028 228.024 50.746 228.624 50.182C229.236 49.606 229.542 48.88 229.542 48.004C229.542 47.116 229.254 46.39 228.678 45.826C228.114 45.25 227.358 44.962 226.41 44.962C225.558 44.962 224.784 45.232 224.088 45.772C223.392 46.3 223.044 47.008 223.044 47.896C223.044 48.808 223.356 49.558 223.98 50.146C224.616 50.734 225.396 51.028 226.32 51.028ZM239.566 43V52H238.378V44.152H234.31V48.166C234.31 49.666 234.022 50.698 233.446 51.262C232.882 51.826 232.102 52.072 231.106 52V50.884C231.79 50.956 232.294 50.794 232.618 50.398C232.954 50.002 233.122 49.258 233.122 48.166V43H239.566ZM249.822 43H251.01V52H249.822V50.236C248.994 51.556 247.782 52.216 246.186 52.216C244.902 52.216 243.804 51.76 242.892 50.848C241.992 49.936 241.542 48.82 241.542 47.5C241.542 46.18 241.992 45.064 242.892 44.152C243.804 43.24 244.902 42.784 246.186 42.784C247.782 42.784 248.994 43.444 249.822 44.764V43ZM243.756 50.038C244.44 50.722 245.28 51.064 246.276 51.064C247.272 51.064 248.112 50.722 248.796 50.038C249.48 49.342 249.822 48.496 249.822 47.5C249.822 46.504 249.48 45.664 248.796 44.98C248.112 44.284 247.272 43.936 246.276 43.936C245.28 43.936 244.44 44.284 243.756 44.98C243.072 45.664 242.73 46.504 242.73 47.5C242.73 48.496 243.072 49.342 243.756 50.038ZM257.72 52.216C256.364 52.216 255.236 51.766 254.336 50.866C253.436 49.954 252.986 48.832 252.986 47.5C252.986 46.168 253.436 45.052 254.336 44.152C255.236 43.24 256.364 42.784 257.72 42.784C258.608 42.784 259.406 43 260.114 43.432C260.822 43.852 261.338 44.422 261.662 45.142L260.69 45.7C260.45 45.16 260.06 44.734 259.52 44.422C258.992 44.098 258.392 43.936 257.72 43.936C256.724 43.936 255.884 44.284 255.2 44.98C254.516 45.664 254.174 46.504 254.174 47.5C254.174 48.496 254.516 49.342 255.2 50.038C255.884 50.722 256.724 51.064 257.72 51.064C258.392 51.064 258.992 50.908 259.52 50.596C260.048 50.272 260.462 49.84 260.762 49.3L261.752 49.876C261.38 50.596 260.834 51.166 260.114 51.586C259.394 52.006 258.596 52.216 257.72 52.216ZM269.761 43V44.152H266.575V52H265.387V44.152H262.201V43H269.761ZM277.761 43H278.769V52H277.581V45.07L272.217 52H271.209V43H272.397V49.93L277.761 43Z" fill="white"/>
<path d="M62 33.2297C62.0037 32.0756 61.6597 30.9471 61.0127 29.9914C60.3656 29.0357 59.4457 28.2972 58.3727 27.8721C57.2784 27.4319 56.3573 26.6474 55.7485 25.6372L53.8575 22.4855C53.7686 22.3375 53.643 22.2149 53.4927 22.1298C53.3424 22.0447 53.1727 22 53 22C52.8273 22 52.6575 22.0447 52.5073 22.1298C52.357 22.2149 52.2313 22.3375 52.1425 22.4855L50.2515 25.6371C49.6427 26.6474 48.7215 27.4319 47.6272 27.8721C46.6114 28.2782 45.7319 28.9649 45.0915 29.852C44.4511 30.7391 44.0762 31.7899 44.0104 32.882C43.9447 33.9741 44.1908 35.0624 44.7201 36.0199C45.2495 36.9774 46.0402 37.7647 47 38.2898V39.8571C46.5154 39.4415 45.9656 39.1087 45.3727 38.8721C44.2784 38.4319 43.3573 37.6474 42.7485 36.6372L40.8575 33.4855C40.7686 33.3375 40.6429 33.2149 40.4927 33.1298C40.3424 33.0447 40.1727 33 40 33V26H39.9986C39.9991 25.8127 39.9469 25.629 39.848 25.47L35 17.7131V14.5017C35.6609 14.1325 36.2001 13.579 36.5522 12.9088C36.9042 12.2386 37.0538 11.4805 36.9827 10.7268C36.9117 9.97312 36.623 9.25634 36.1519 8.66373C35.6809 8.07112 35.0476 7.62825 34.3294 7.38904C34.1325 7.324 33.9505 7.22056 33.7938 7.08471C33.6372 6.94886 33.509 6.78329 33.4168 6.5976L33 5.76398V2H31V5.76398L30.5832 6.5976C30.4909 6.78329 30.3628 6.94886 30.2061 7.08471C30.0495 7.22056 29.8675 7.324 29.6706 7.38904C28.9523 7.62825 28.3191 8.07112 27.848 8.66373C27.3769 9.25634 27.0883 9.97312 27.0172 10.7268C26.9462 11.4805 27.0957 12.2386 27.4478 12.9088C27.7998 13.579 28.3391 14.1325 29 14.5017V17.7131L24.152 25.47C24.053 25.629 24.0008 25.8127 24.0014 26H24V30.0177C23.9109 29.8946 23.8271 29.7678 23.7484 29.6372L21.8575 26.4855C21.7686 26.3375 21.6429 26.2149 21.4927 26.1298C21.3424 26.0447 21.1727 26 21 26C20.8273 26 20.6575 26.0447 20.5073 26.1298C20.357 26.2149 20.2313 26.3375 20.1425 26.4855L18.2515 29.6371C17.6427 30.6474 16.7215 31.4319 15.6272 31.8721C14.6652 32.2549 13.824 32.8896 13.1919 33.7097L11.8575 31.4855C11.7686 31.3374 11.6429 31.2149 11.4927 31.1298C11.3424 31.0447 11.1727 31 11 31C10.8273 31 10.6575 31.0447 10.5073 31.1298C10.357 31.2149 10.2313 31.3374 10.1425 31.4855L8.2515 34.6371C7.64272 35.6474 6.72152 36.4319 5.62723 36.8721C4.61135 37.2782 3.7319 37.9649 3.0915 38.852C2.45111 39.7391 2.07616 40.7899 2.0104 41.882C1.94464 42.9741 2.19079 44.0624 2.72013 45.0199C3.24946 45.9774 4.04016 46.7647 4.99997 47.2898V50.6667L2.19998 54.4C2.07016 54.5731 1.99998 54.7836 1.99997 55V61C1.99997 61.1313 2.02583 61.2614 2.07608 61.3827C2.12634 61.504 2.2 61.6143 2.29286 61.7071C2.38572 61.8 2.49596 61.8736 2.61728 61.9239C2.73861 61.9741 2.86865 62 2.99997 62H61C61.1313 62 61.2613 61.9741 61.3827 61.9239C61.504 61.8736 61.6142 61.8 61.7071 61.7071C61.8 61.6143 61.8736 61.504 61.9239 61.3827C61.9741 61.2614 62 61.1313 62 61V46C62 45.7836 61.9298 45.5731 61.8 45.4L59 41.6667V38.2898C59.9076 37.7926 60.6648 37.0606 61.1926 36.1704C61.7204 35.2802 61.9992 34.2645 62 33.2297ZM48.37 29.729C49.8697 29.1258 51.1322 28.0506 51.9665 26.6661L53 24.9437L54.0335 26.6662C54.8678 28.0507 56.1303 29.1258 57.6299 29.729C58.4435 30.0544 59.1183 30.6531 59.5384 31.422C59.9585 32.191 60.0977 33.0822 59.932 33.9427C59.7663 34.8031 59.306 35.5789 58.6304 36.1369C57.9548 36.6948 57.1059 37 56.2297 37H49.7703C48.8941 37 48.0452 36.6948 47.3696 36.1369C46.6939 35.5789 46.2337 34.8031 46.068 33.9427C45.9023 33.0822 46.0415 32.191 46.4616 31.422C46.8817 30.6531 47.5565 30.0544 48.37 29.729ZM57.5 43L59 45H48.947C49.0381 44.3339 49.0116 43.657 48.8688 43H57.5ZM41 56V55C41 54.7348 41.1053 54.4804 41.2929 54.2929C41.4804 54.1054 41.7348 54 42 54C42.2652 54 42.5196 54.1054 42.7071 54.2929C42.8946 54.4804 43 54.7348 43 55V56H41ZM37 56V55C37 54.7348 37.1053 54.4804 37.2929 54.2929C37.4804 54.1054 37.7348 54 38 54C38.2652 54 38.5196 54.1054 38.7071 54.2929C38.8946 54.4804 39 54.7348 39 55V56H37ZM33 56V55C33 54.7348 33.1053 54.4804 33.2929 54.2929C33.4804 54.1054 33.7348 54 34 54C34.2652 54 34.5195 54.1054 34.7071 54.2929C34.8946 54.4804 35 54.7348 35 55V56H33ZM21 55.5858L18 52.5858V51H24V52.5858L21 55.5858ZM17.7703 43H24.2296C24.4873 42.9995 24.7447 42.9818 25 42.9471V45.7663C24.4507 45.2729 23.7383 45 23 45C22.2616 45 21.5493 45.2729 21 45.7663C20.4507 45.2729 19.7383 45 19 45C18.2616 45 17.5493 45.2729 17 45.7663V42.9471C17.2553 42.9818 17.5126 42.9995 17.7703 43ZM26 27H31V28.6667L28.2 32.4C28.0982 32.5367 28.033 32.6972 28.0108 32.8662C27.5236 32.4464 26.97 32.1104 26.3727 31.8721C26.2462 31.8215 26.122 31.7655 26 31.7055V27ZM31.0046 44H30V33.3333L32 30.6667L34 33.3333V39.1674C33.1237 39.6431 32.3866 40.339 31.8613 41.1864C31.3361 42.0339 31.0408 43.0036 31.0046 44ZM18 49V48C18 47.7348 18.1053 47.4804 18.2929 47.2929C18.4804 47.1054 18.7348 47 19 47C19.2652 47 19.5195 47.1054 19.7071 47.2929C19.8946 47.4804 20 47.7348 20 48V49H18ZM22 48C22 47.7348 22.1053 47.4804 22.2929 47.2929C22.4804 47.1054 22.7348 47 23 47C23.2652 47 23.5195 47.1054 23.7071 47.2929C23.8946 47.4804 24 47.7348 24 48V49H22V48ZM26 48C26 47.7348 26.1053 47.4804 26.2929 47.2929C26.4804 47.1054 26.7348 47 27 47C27.2652 47 27.5195 47.1054 27.7071 47.2929C27.8946 47.4804 28 47.7348 28 48V49H26V48ZM36 34H38V35.3897L37.2515 36.6371C36.922 37.1841 36.4983 37.6684 36 38.0677V34ZM38 32H35.4999L33 28.6667V27H38V32ZM28 44H27V42.2898C27.3569 42.0931 27.6921 41.8593 28 41.5923V44ZM16 48V49H14V48C14 47.7348 14.1053 47.4804 14.2929 47.2929C14.4804 47.1054 14.7348 47 15 47C15.2652 47 15.5195 47.1054 15.7071 47.2929C15.8946 47.4804 16 47.7348 16 48ZM14 51H16V52.5858L14 54.5858V51ZM26 51H28V54.5858L26 52.5858V51ZM30 48C30.0005 47.2615 29.7275 46.549 29.2337 46H31.2789C31.7346 47.4027 32.7076 48.5791 34 49.2898V52C33.2046 52.0009 32.4421 52.3172 31.8796 52.8797C31.3172 53.4421 31.0009 54.2046 31 55V60H30V48ZM42 52C41.2615 51.9995 40.549 52.2725 40 52.7663C39.4507 52.2729 38.7383 52 38 52C37.2616 52 36.5493 52.2729 36 52.7663V49.9471C36.2553 49.9818 36.5126 49.9995 36.7703 50H43.2297C43.4873 49.9995 43.7447 49.9818 44 49.9471V52.7663C43.4509 52.2725 42.7384 51.9995 42 52ZM45 55C45 54.7348 45.1053 54.4804 45.2929 54.2929C45.4804 54.1054 45.7348 54 46 54C46.2652 54 46.5196 54.1054 46.7071 54.2929C46.8946 54.4804 47 54.7348 47 55V56H45V55ZM54 60H50V56.4142L52 54.4142L54 56.4142V60ZM56 56.4142L58 54.4142L60 56.4142V60H56V56.4142ZM58.7071 52.2929C58.5195 52.1054 58.2652 52 58 52C57.7348 52 57.4804 52.1054 57.2929 52.2929L55 54.5858L52.7071 52.2929C52.5195 52.1054 52.2652 52 52 52C51.7348 52 51.4804 52.1054 51.2929 52.2929L48.974 54.6118C48.879 53.8899 48.5251 53.2272 47.978 52.7468C47.4309 52.2664 46.728 52.001 46 52V49.2898C46.9648 48.7589 47.7589 47.9648 48.2898 47H60V49H59V51H60V53.5858L58.7071 52.2929ZM41.0335 37.6662C41.8678 39.0507 43.1303 40.1258 44.6299 40.729C45.4435 41.0544 46.1183 41.6531 46.5384 42.422C46.9585 43.191 47.0977 44.0822 46.932 44.9427C46.7663 45.8031 46.306 46.5789 45.6304 47.1369C44.9548 47.6948 44.1059 48 43.2297 48H36.7703C35.8941 48 35.0452 47.6948 34.3696 47.1369C33.6939 46.5789 33.2337 45.8031 33.068 44.9427C32.9023 44.0822 33.0415 43.191 33.4616 42.422C33.8817 41.6531 34.5565 41.0544 35.37 40.729C36.8697 40.1258 38.1322 39.0506 38.9665 37.6661L39.9662 36H40V35.9437L41.0335 37.6662ZM33 25V19H33.4457L37.1957 25H33ZM33 17H31V15H33V17ZM30.303 9.28638C30.9758 9.06416 31.5667 8.64588 32 8.08527C32.4332 8.64588 33.0242 9.06416 33.6969 9.28638C34.1262 9.42948 34.4906 9.72067 34.7248 10.1078C34.959 10.495 35.0479 10.9529 34.9754 11.3996C34.9029 11.8462 34.6738 12.2525 34.3292 12.5457C33.9845 12.839 33.5468 13 33.0943 13H30.9057C30.4532 13 30.0154 12.839 29.6708 12.5457C29.3261 12.2525 29.0971 11.8462 29.0246 11.3996C28.9521 10.9529 29.0409 10.495 29.2751 10.1078C29.5094 9.72067 29.8737 9.42948 30.303 9.28638ZM30.5542 19H31V25H26.8042L30.5542 19ZM16.37 33.729C17.8697 33.1258 19.1322 32.0506 19.9665 30.6661L21 28.9437L22.0335 30.6662C22.8678 32.0507 24.1303 33.1258 25.6299 33.729C26.4435 34.0544 27.1183 34.6531 27.5384 35.422C27.9585 36.191 28.0977 37.0822 27.932 37.9427C27.7663 38.8031 27.306 39.5789 26.6304 40.1369C25.9548 40.6948 25.1059 41 24.2296 41H17.7703C16.8941 41 16.0452 40.6948 15.3696 40.1369C14.6939 39.5789 14.2337 38.8031 14.068 37.9427C13.9023 37.0822 14.0414 36.191 14.4616 35.422C14.8817 34.6531 15.5565 34.0544 16.37 33.729ZM6.37003 38.729C7.86971 38.1258 9.13217 37.0506 9.96646 35.6661L11 33.9437L12.0335 35.6661C12.0745 35.7345 12.1176 35.8018 12.1609 35.869C11.8635 37.1025 11.9804 38.3995 12.4935 39.56C13.0066 40.7204 13.8874 41.6797 15 42.2898V45C14.5782 44.9999 14.1612 45.0889 13.7762 45.2613C13.3913 45.4336 13.0471 45.6853 12.7663 46H7.7703C6.89406 46 6.04519 45.6948 5.36955 45.1369C4.69391 44.5789 4.2337 43.8031 4.06799 42.9427C3.90229 42.0822 4.04145 41.191 4.46155 40.422C4.88165 39.6531 5.55647 39.0544 6.37003 38.729ZM7.7703 48H12V50H6.99997V47.9471C7.25528 47.9818 7.51263 47.9995 7.7703 48ZM6.49997 52H12V55C11.4321 54.9999 10.8707 55.1211 10.3533 55.3553C9.83595 55.5896 9.37456 55.9316 8.99997 56.3585C8.39053 55.6638 7.55884 55.2023 6.64692 55.0526C5.73501 54.903 4.79943 55.0746 3.99997 55.5381V55.3333L6.49997 52ZM3.99997 59C3.99997 58.4696 4.21069 57.9609 4.58576 57.5858C4.96083 57.2107 5.46954 57 5.99997 57C6.53041 57 7.03911 57.2107 7.41419 57.5858C7.78926 57.9609 7.99997 58.4696 7.99997 59V60H3.99997V59ZM9.99997 59C10.0006 58.4698 10.2115 57.9614 10.5864 57.5865C10.9614 57.2115 11.4697 57.0006 12 57V60H9.99997V59ZM14 57.4142L17 54.4142L20 57.4142V60H14V57.4142ZM22 60V57.4142L25 54.4142L28 57.4142V60H22ZM47 60H33V58H47V60ZM57 41H49V38.9471C49.2553 38.9818 49.5126 38.9995 49.7703 39H56.2297C56.4873 38.9995 56.7447 38.9818 57 38.9471V41Z" fill="#FFB75E"/>
<path d="M53 49H51V51H53V49Z" fill="#FFB75E"/>
<path d="M57 49H55V51H57V49Z" fill="#FFB75E"/>
<path d="M49 49H47V51H49V49Z" fill="#FFB75E"/>
</svg>
